Jog05_grf.mot																		
version=1																		
nRows=86																		
nColumns 19																		
inDegrees=yes																		
endheader																		
time	calcn_r_ground_force_vx	calcn_r_ground_force_vy	calcn_r_ground_force_vz	calcn_r_ground_force_px	calcn_r_ground_force_py	calcn_r_ground_force_pz	calcn_r_ground_torque_x	calcn_r_ground_torque_y	calcn_r_ground_torque_z	calcn_l_ground_force_vx	calcn_l_ground_force_vy	calcn_l_ground_force_vz	calcn_l_ground_force_px	calcn_l_ground_force_py	calcn_l_ground_force_pz	calcn_l_ground_torque_x	calcn_l_ground_torque_y	calcn_l_ground_torque_z
1.954	-2.894957	518.976727	13.422299	3.484762	0	0.310176	0.003646	1.120058	0.035184	0	0	0	0	0	0	0	0	0
1.9545	-3.812661	542.591228	13.841069	3.486235	0	0.30989	0.0006	1.167865	0.035361	0	0	0	0	0	0	0	0	0
1.955	-4.852112	566.30282	14.222109	3.487652	0	0.309629	-0.002472	1.214275	0.035486	0	0	0	0	0	0	0	0	0
1.9555	-6.014967	590.047947	14.563162	3.489016	0	0.309392	-0.005575	1.259172	0.035552	0	0	0	0	0	0	0	0	0
1.956	-7.302117	613.760189	14.86217	3.490328	0	0.309177	-0.008712	1.302437	0.035553	0	0	0	0	0	0	0	0	0
1.9565	-8.713645	637.37047	15.117323	3.491593	0	0.308986	-0.011884	1.343965	0.035484	0	0	0	0	0	0	0	0	0
1.957	-10.248809	660.807419	15.327098	3.492811	0	0.308815	-0.015093	1.383656	0.035342	0	0	0	0	0	0	0	0	0
1.9575	-11.906064	683.997791	15.490296	3.493986	0	0.308666	-0.018335	1.42141	0.035123	0	0	0	0	0	0	0	0	0
1.958	-13.683122	706.866917	15.606073	3.49512	0	0.308535	-0.021609	1.457122	0.034825	0	0	0	0	0	0	0	0	0
1.9585	-15.577014	729.339213	15.673945	3.496215	0	0.308423	-0.024909	1.490679	0.034446	0	0	0	0	0	0	0	0	0
1.959	-17.584167	751.338725	15.693815	3.497273	0	0.308327	-0.02823	1.521965	0.033984	0	0	0	0	0	0	0	0	0
1.9595	-19.700505	772.789658	15.666022	3.498295	0	0.308248	-0.031567	1.550879	0.033439	0	0	0	0	0	0	0	0	0
1.96	-21.921551	793.616933	15.591376	3.499283	0	0.308183	-0.034913	1.577337	0.032812	0	0	0	0	0	0	0	0	0
1.9605	-24.242491	813.746849	15.471164	3.500239	0	0.308131	-0.038262	1.601269	0.032107	0	0	0	0	0	0	0	0	0
1.961	-26.658171	833.107847	15.30713	3.501163	0	0.308091	-0.041607	1.622605	0.031326	0	0	0	0	0	0	0	0	0
1.9615	-29.16312	851.6312	15.101446	3.502059	0	0.308062	-0.044939	1.641266	0.030473	0	0	0	0	0	0	0	0	0
1.962	-31.751576	869.251576	14.856719	3.502925	0	0.308043	-0.048252	1.657163	0.029552	0	0	0	0	0	0	0	0	0
1.9625	-34.417525	885.907499	14.576022	3.503764	0	0.308031	-0.051536	1.670205	0.028568	0	0	0	0	0	0	0	0	0
1.963	-37.154748	901.541733	14.262921	3.504577	0	0.308027	-0.054784	1.680306	0.027527	0	0	0	0	0	0	0	0	0
1.9635	-39.956848	916.101623	13.921494	3.505365	0	0.308028	-0.057988	1.687397	0.026434	0	0	0	0	0	0	0	0	0
1.964	-42.817207	929.539597	13.556327	3.506129	0	0.308033	-0.06114	1.691425	0.025297	0	0	0	0	0	0	0	0	0
1.9645	-45.728934	941.813974	13.172475	3.506869	0	0.308042	-0.064233	1.692349	0.024125	0	0	0	0	0	0	0	0	0
1.965	-48.684843	952.889802	12.77539	3.507586	0	0.308052	-0.067259	1.690137	0.022928	0	0	0	0	0	0	0	0	0
1.9655	-51.677497	962.739332	12.37082	3.508282	0	0.308064	-0.070211	1.684774	0.021714	0	0	0	0	0	0	0	0	0
1.966	-54.699318	971.342125	11.96471	3.508956	0	0.308076	-0.073084	1.676266	0.020495	0	0	0	0	0	0	0	0	0
1.9665	-57.742701	978.685117	11.563123	3.50961	0	0.308086	-0.075873	1.664654	0.019281	0	0	0	0	0	0	0	0	0
1.967	-60.80008	984.762703	11.172152	3.510246	0	0.308095	-0.078575	1.650021	0.018083	0	0	0	0	0	0	0	0	0
1.9675	-63.863961	989.57679	10.797744	3.510863	0	0.308102	-0.08119	1.632491	0.016912	0	0	0	0	0	0	0	0	0
1.968	-66.926936	993.136725	10.445519	3.511463	0	0.308105	-0.083722	1.612212	0.015779	0	0	0	0	0	0	0	0	0
1.9685	-69.981726	995.459096	10.120608	3.512046	0	0.308105	-0.086173	1.589355	0.014695	0	0	0	0	0	0	0	0	0
1.969	-73.021269	996.567367	9.82753	3.512614	0	0.308101	-0.088547	1.564104	0.013668	0	0	0	0	0	0	0	0	0
1.9695	-76.038868	996.491375	9.570099	3.513168	0	0.308092	-0.090853	1.536667	0.012707	0	0	0	0	0	0	0	0	0
1.97	-79.028343	995.26679	9.351359	3.513709	0	0.308078	-0.093103	1.507288	0.011817	0	0	0	0	0	0	0	0	0
1.9705	-81.984151	992.934668	9.173503	3.514237	0	0.30806	-0.09531	1.476241	0.011004	0	0	0	0	0	0	0	0	0
1.971	-84.901466	989.54106	9.037835	3.514755	0	0.308036	-0.097493	1.443818	0.010273	0	0	0	0	0	0	0	0	0
1.9715	-87.776229	985.136543	8.94478	3.515262	0	0.308008	-0.099672	1.410316	0.009625	0	0	0	0	0	0	0	0	0
1.972	-90.605219	979.775652	8.893944	3.51576	0	0.307974	-0.101866	1.376015	0.009062	0	0	0	0	0	0	0	0	0
1.9725	-93.386106	973.516261	8.884181	3.51625	0	0.307936	-0.104096	1.341179	0.008586	0	0	0	0	0	0	0	0	0
1.973	-96.117446	966.418898	8.913675	3.516733	0	0.307892	-0.106383	1.306062	0.008196	0	0	0	0	0	0	0	0	0
1.9735	-98.798607	958.546057	8.980044	3.51721	0	0.307844	-0.108749	1.270932	0.007894	0	0	0	0	0	0	0	0	0
1.974	-101.429655	949.961599	9.080458	3.517681	0	0.307792	-0.111224	1.236069	0.007676	0	0	0	0	0	0	0	0	0
1.9745	-104.01122	940.730246	9.211783	3.518147	0	0.307736	-0.113835	1.201758	0.007544	0	0	0	0	0	0	0	0	0
1.975	-106.54435	930.91708	9.370701	3.518609	0	0.307676	-0.116612	1.168275	0.007495	0	0	0	0	0	0	0	0	0
1.9755	-109.030376	920.587022	9.553831	3.519067	0	0.307613	-0.119582	1.135872	0.007529	0	0	0	0	0	0	0	0	0
1.976	-111.470788	909.804288	9.757853	3.519522	0	0.307547	-0.122774	1.104787	0.007644	0	0	0	0	0	0	0	0	0
1.9765	-113.867108	898.63187	9.979613	3.519974	0	0.307477	-0.126213	1.075251	0.007839	0	0	0	0	0	0	0	0	0
1.977	-116.22074	887.131089	10.216192	3.520424	0	0.307406	-0.129927	1.047494	0.008114	0	0	0	0	0	0	0	0	0
1.9775	-118.532824	875.361245	10.464944	3.520872	0	0.307332	-0.133943	1.02174	0.00847	0	0	0	0	0	0	0	0	0
1.978	-120.804097	863.379374	10.723532	3.521319	0	0.307256	-0.138284	0.998183	0.008907	0	0	0	0	0	0	0	0	0
1.9785	-123.034783	851.240024	10.989973	3.521764	0	0.307179	-0.142969	0.976978	0.009423	0	0	0	0	0	0	0	0	0
1.979	-125.224521	838.994992	11.262672	3.522207	0	0.3071	-0.14801	0.958239	0.010018	0	0	0	0	0	0	0	0	0
1.9795	-127.372304	826.693066	11.540448	3.52265	0	0.30702	-0.153415	0.942046	0.010692	0	0	0	0	0	0	0	0	0
1.98	-129.476436	814.379759	11.822536	3.52309	0	0.306939	-0.159188	0.928466	0.011443	0	0	0	0	0	0	0	0	0
1.9805	-131.534489	802.097126	12.108555	3.52353	0	0.306857	-0.165335	0.917557	0.012272	0	0	0	0	0	0	0	0	0
1.981	-133.543252	789.883725	12.398458	3.523967	0	0.306774	-0.171856	0.909365	0.013177	0	0	0	0	0	0	0	0	0
1.9815	-135.498733	777.77466	12.692474	3.524402	0	0.306691	-0.178747	0.903913	0.01416	0	0	0	0	0	0	0	0	0
1.982	-137.396201	765.801658	12.991005	3.524836	0	0.306608	-0.185999	0.901189	0.015218	0	0	0	0	0	0	0	0	0
1.9825	-139.23027	753.993156	13.29451	3.525267	0	0.306524	-0.193593	0.901138	0.016352	0	0	0	0	0	0	0	0	0
1.983	-140.99503	742.374327	13.603454	3.525695	0	0.30644	-0.201505	0.903666	0.01756	0	0	0	0	0	0	0	0	0
1.9835	-142.684181	730.967098	13.918309	3.52612	0	0.306357	-0.209705	0.908669	0.018839	0	0	0	0	0	0	0	0	0
1.984	-144.291158	719.790253	14.239538	3.526543	0	0.306273	-0.218162	0.916034	0.020187	0	0	0	0	0	0	0	0	0
1.9845	-145.809255	708.859636	14.567524	3.526962	0	0.30619	-0.226845	0.925643	0.021603	0	0	0	0	0	0	0	0	0
1.985	-147.231774	698.188412	14.902488	3.527378	0	0.306107	-0.235715	0.937354	0.023083	0	0	0	0	0	0	0	0	0
1.9855	-148.552225	687.787311	15.244452	3.527791	0	0.306026	-0.244729	0.951004	0.024625	0	0	0	0	0	0	0	0	0
1.986	-149.764523	677.664816	15.593225	3.5282	0	0.305945	-0.253837	0.96641	0.026224	0	0	0	0	0	0	0	0	0
1.9865	-150.863187	667.827294	15.9484	3.528605	0	0.305865	-0.262989	0.983382	0.027876	0	0	0	0	0	0	0	0	0
1.987	-151.843497	658.27909	16.30939	3.529005	0	0.305787	-0.272139	1.001736	0.029577	0	0	0	0	0	0	0	0	0
1.9875	-152.701592	649.022689	16.675434	3.529402	0	0.305711	-0.281243	1.021306	0.031322	0	0	0	0	0	0	0	0	0
1.988	-153.434519	640.058985	17.045569	3.529794	0	0.305637	-0.290262	1.041932	0.033106	0	0	0	0	0	0	0	0	0
1.9885	-154.04027	631.387574	17.418607	3.530183	0	0.305565	-0.299157	1.063457	0.034924	0	0	0	0	0	0	0	0	0
1.989	-154.517823	623.006956	17.793146	3.530567	0	0.305496	-0.30789	1.085725	0.036771	0	0	0	0	0	0	0	0	0
1.9895	-154.867174	614.914663	18.167613	3.530946	0	0.30543	-0.316425	1.108578	0.03864	0	0	0	0	0	0	0	0	0
1.99	-155.089337	607.107306	18.540341	3.531321	0	0.305366	-0.324732	1.13188	0.040526	0	0	0	0	0	0	0	0	0
1.9905	-155.186284	599.58063	18.909653	3.531692	0	0.305306	-0.33279	1.155523	0.042424	0	0	0	0	0	0	0	0	0
1.991	-155.160832	592.329604	19.273905	3.532058	0	0.30525	-0.340589	1.179428	0.04433	0	0	0	0	0	0	0	0	0
1.9915	-155.016523	585.348537	19.631501	3.532419	0	0.305197	-0.348125	1.203537	0.046239	0	0	0	0	0	0	0	0	0
1.992	-154.757504	578.631242	19.980907	3.532776	0	0.305148	-0.355397	1.227804	0.048149	0	0	0	0	0	0	0	0	0
1.9925	-154.388409	572.171175	20.320692	3.533128	0	0.305104	-0.362404	1.252176	0.050057	0	0	0	0	0	0	0	0	0
1.993	-153.914248	565.961489	20.649572	3.533474	0	0.305063	-0.369143	1.276596	0.051958	0	0	0	0	0	0	0	0	0
1.9935	-153.340299	559.995004	20.966459	3.533816	0	0.305027	-0.375611	1.301009	0.053851	0	0	0	0	0	0	0	0	0
1.994	-152.671998	554.264173	21.270487	3.534153	0	0.304995	-0.381809	1.325372	0.055732	0	0	0	0	0	0	0	0	0
1.9945	-151.914811	548.761123	21.56102	3.534485	0	0.304967	-0.38774	1.349658	0.0576	0	0	0	0	0	0	0	0	0
1.995	-151.074109	543.477745	21.837612	3.534812	0	0.304944	-0.393412	1.373843	0.059456	0	0	0	0	0	0	0	0	0
1.9955	-150.155089	538.405774	22.099982	3.535134	0	0.304926	-0.398826	1.397899	0.061299	0	0	0	0	0	0	0	0	0
1.996	-149.162722	533.536862	22.348012	3.535452	0	0.304911	-0.40398	1.421782	0.063129	0	0	0	0	0	0	0	0	0
1.9965	-148.101744	528.86261	22.581783	3.535765	0	0.304901	-0.40887	1.44544	0.064943	0	0	0	0	0	0	0	0	0
